# This file uses centimeters as units for non-parametric coordinates.

mtllib Metal_wall.mtl
g default
v -0.000048 0.998581 0.053117
v 0.998533 0.998581 0.053117
v -0.000048 -0.000000 0.053117
v 0.998533 -0.000000 0.053117
v 0.047555 0.998581 0.053117
v 0.956973 0.998581 0.053117
v 0.047555 0.000000 0.053117
v 0.956973 -0.000000 0.053117
v 0.092225 0.998581 -0.003722
v 0.912308 0.998581 -0.003722
v 0.092225 -0.000000 -0.003722
v 0.912308 -0.000000 -0.003722
v -0.000048 0.998581 -0.006378
v -0.000048 -0.000000 -0.006378
v 0.998533 0.998581 -0.004232
v 0.998533 -0.000000 -0.004232
vt 1.062088 0.558352
vt 1.062088 0.001784
vt 1.062088 0.558352
vt 1.062088 0.001784
vt 0.897609 0.893807
vt 0.126558 0.893807
vt 0.126558 0.001784
vt 0.897609 0.001784
vt 0.086655 0.893807
vt 0.086655 0.001784
vt 0.937512 0.001784
vt 0.937512 0.893807
vt 0.066072 0.893807
vt 0.066072 0.001784
vt 0.958095 0.001784
vt 0.958095 0.893807
vt 0.966056 0.001784
vt 0.966056 0.893807
vt 0.966056 0.873225
vt 0.966056 0.022367
vt 0.015789 0.001784
vt 0.015789 0.852642
vt -0.021176 0.812738
vt -0.021176 0.041687
vt 1.018247 0.852642
vt 1.018247 0.001784
vt 1.055211 0.041687
vt 1.055211 0.812738
vt 0.000000 0.000000
vt 1.000000 0.000000
vt 1.000000 1.000000
vt 0.000000 1.000000
vt 0.000000 0.000000
vt 1.000000 0.000000
vt 1.000000 1.000000
vt 0.000000 1.000000
vn 0.000000 0.000000 1.000000
vn 0.000000 0.000000 1.000000
vn 0.000000 0.000000 1.000000
vn 0.000000 0.000000 1.000000
vn 0.000000 0.000000 -0.000000
vn 0.000000 0.000000 -0.000000
vn 0.000000 0.000000 -0.000000
vn 0.000000 0.000000 -0.000000
vn 0.000000 0.000000 1.000000
vn 0.000000 0.000000 1.000000
vn 0.000000 0.000000 1.000000
vn 0.000000 0.000000 1.000000
vn 0.000000 0.000000 0.000000
vn 0.000000 0.000000 0.000000
vn 0.000000 0.000000 0.000000
vn 0.000000 0.000000 0.000000
vn -0.000000 0.000000 1.000000
vn -0.000000 0.000000 1.000000
vn -0.000000 0.000000 1.000000
vn -0.000000 0.000000 1.000000
vn 0.000000 -1.000000 0.000001
vn 0.000000 -1.000000 0.000001
vn 0.000000 -1.000000 0.000001
vn 0.000000 -1.000000 0.000001
vn 0.786243 0.000000 0.617917
vn 0.786243 0.000000 0.617917
vn 0.786243 0.000000 0.617917
vn 0.786243 0.000000 0.617917
vn 0.000000 1.000000 -0.000000
vn 0.000000 1.000000 -0.000000
vn 0.000000 1.000000 -0.000000
vn 0.000000 1.000000 -0.000000
vn -0.786282 0.000000 0.617867
vn -0.786282 0.000000 0.617867
vn -0.786282 0.000000 0.617867
vn -0.786282 0.000000 0.617867
vn -1.000000 0.000000 0.000000
vn -1.000000 0.000000 0.000000
vn -1.000000 0.000000 0.000000
vn -1.000000 0.000000 0.000000
vn 1.000000 0.000000 0.000000
vn 1.000000 0.000000 0.000000
vn 1.000000 0.000000 0.000000
vn 1.000000 0.000000 0.000000
s off
g wall1
usemtl phong2SG
f 10/5/1 9/6/2 11/7/3 12/8/4
f 2/17/5 1/18/6 5/19/7 6/20/8
f 1/13/9 3/14/10 7/10/11 5/9/12
f 3/1/13 4/2/14 8/4/15 7/3/16
f 4/15/17 2/16/18 6/12/19 8/11/20
f 6/21/21 5/22/22 9/23/23 10/24/24
f 5/9/25 7/10/26 11/7/27 9/6/28
f 7/25/29 8/26/30 12/27/31 11/28/32
f 8/11/33 6/12/34 10/5/35 12/8/36
f 3/29/37 1/30/38 13/31/39 14/32/40
f 2/33/41 4/34/42 16/35/43 15/36/44
