# This file uses centimeters as units for non-parametric coordinates.

mtllib Wood_wall.mtl
g default
v 1.001705 0.084780 -0.000229
v 1.001705 0.057978 0.004016
v 1.001705 0.033800 0.016336
v 1.001705 0.014612 0.035524
v 1.001705 0.002293 0.059702
v 1.001705 -0.001952 0.086504
v 0.000966 0.084780 -0.000229
v 0.000966 0.057978 0.004016
v 0.000966 0.033800 0.016336
v 0.000966 0.014612 0.035524
v 0.000966 0.002293 0.059702
v 0.000966 -0.001952 0.086504
v 1.001705 0.998773 0.087064
v 1.001705 0.994528 0.060262
v 1.001705 0.982206 0.036084
v 1.001705 0.963018 0.016896
v 1.001705 0.938843 0.004577
v 1.001705 0.912038 0.000332
v 0.000966 0.998773 0.087064
v 0.000966 0.994528 0.060262
v 0.000966 0.982206 0.036084
v 0.000966 0.963018 0.016896
v 0.000966 0.938843 0.004577
v 0.000966 0.912038 0.000332
v -0.000967 0.916184 0.000407
v 0.998312 0.916184 0.000407
v -0.000967 0.083095 0.000407
v 0.998312 0.083095 0.000407
vt 0.065114 0.001801
vt 0.065114 0.902055
vt 0.041004 0.902055
vt 0.041004 0.001801
vt 0.019253 0.902055
vt 0.019253 0.001801
vt 0.001992 0.902055
vt 0.001992 0.001801
vt 0.118210 0.001801
vt 0.118210 0.902055
vt 0.096460 0.902055
vt 0.096460 0.001801
vt 0.072349 0.902055
vt 0.072349 0.001801
vt 0.188093 0.001801
vt 0.188093 0.902055
vt 0.163983 0.902055
vt 0.163983 0.001801
vt 0.142232 0.902055
vt 0.142232 0.001801
vt 0.124971 0.902055
vt 0.124971 0.001801
vt 0.240994 0.001801
vt 0.240994 0.902055
vt 0.219244 0.902055
vt 0.219244 0.001801
vt 0.195133 0.902055
vt 0.195133 0.001801
vt 0.886430 1.060368
vt 0.102457 1.060368
vt 0.102457 -0.039429
vt 0.886430 -0.039429
vn 0.000000 0.156434 0.987688
vn 0.000000 0.156434 0.987688
vn 0.000000 0.309018 0.951056
vn 0.000000 0.309018 0.951056
vn 0.000000 0.587786 0.809017
vn 0.000000 0.587786 0.809017
vn 0.000000 0.809016 0.587786
vn 0.000000 0.809016 0.587786
vn 0.000000 0.951057 0.309017
vn 0.000000 0.951057 0.309017
vn 0.000000 0.987689 0.156434
vn 0.000000 0.987689 0.156434
vn 0.000000 -0.987687 0.156441
vn 0.000000 -0.987687 0.156441
vn 0.000000 -0.951046 0.309050
vn 0.000000 -0.951046 0.309050
vn 0.000000 -0.808997 0.587813
vn 0.000000 -0.808997 0.587813
vn 0.000000 -0.587807 0.809001
vn 0.000000 -0.587807 0.809001
vn 0.000000 -0.309019 0.951056
vn 0.000000 -0.309019 0.951056
vn 0.000000 -0.156419 0.987691
vn 0.000000 -0.156419 0.987691
vn 0.000000 0.000000 1.000000
vn 0.000000 0.000000 1.000000
vn 0.000000 0.000000 1.000000
vn 0.000000 0.000000 1.000000
s 1
g wall
usemtl lambert3SG
f 1/1/1 7/2/2 8/3/3 2/4/4
f 2/4/4 8/3/3 9/5/5 3/6/6
f 3/6/6 9/5/5 10/7/7 4/8/8
f 4/9/8 10/10/7 11/11/9 5/12/10
f 5/12/10 11/11/9 12/13/11 6/14/12
s 2
f 13/15/13 19/16/14 20/17/15 14/18/16
f 14/18/16 20/17/15 21/19/17 15/20/18
f 15/20/18 21/19/17 22/21/19 16/22/20
f 16/23/20 22/24/19 23/25/21 17/26/22
f 17/26/22 23/25/21 24/27/23 18/28/24
s off
f 25/29/25 27/30/26 28/31/27 26/32/28
