# This file uses centimeters as units for non-parametric coordinates.

mtllib Cristal_floor.mtl
g default
v -0.000953 -0.000000 -0.000561
v -0.000953 -0.000000 1.000408
v 1.000012 0.000000 -0.000561
v 1.000012 0.000000 1.000408
v 0.073323 0.020105 0.073715
v 0.073323 0.020105 0.926130
v 0.925733 0.020105 0.926130
v 0.925733 0.020105 0.073715
v 0.080426 0.020105 0.080818
v 0.080426 0.020105 0.919026
v 0.918631 0.020105 0.919026
v 0.918631 0.020105 0.080818
v 0.080426 0.034244 0.080818
v 0.080426 0.034244 0.919026
v 0.918631 0.034244 0.919026
v 0.918631 0.034244 0.080818
vt 0.081301 0.918699
vt 0.081301 0.081301
vt 0.918699 0.081301
vt 0.918699 0.918699
vt -0.000000 1.000000
vt 1.000000 1.000000
vt 1.000000 0.000000
vt -0.000000 0.000000
vt 0.074204 0.074204
vt 0.074204 0.925796
vt 0.925796 0.074204
vt 0.925796 0.925796
vt 0.081301 0.081301
vt 0.081301 0.918699
vt 0.918699 0.081301
vt 0.918699 0.918699
vt 0.000174 0.998008
vt 0.000174 0.001992
vt 0.016975 0.001992
vt 0.016975 0.998008
vt 0.046972 0.998002
vt 0.046972 0.001992
vt 0.063773 0.001992
vt 0.063773 0.998002
vt 0.023663 0.998008
vt 0.023663 0.001992
vt 0.040463 0.001992
vt 0.040463 0.998008
vt 0.087082 0.001992
vt 0.087082 0.998002
vt 0.070282 0.998002
vt 0.070282 0.001992
vn 0.000000 1.000000 0.000000
vn 0.000000 1.000000 0.000000
vn 0.000000 1.000000 0.000000
vn 0.000000 1.000000 0.000000
vn 0.000000 -1.000000 0.000000
vn 0.000000 -1.000000 0.000000
vn 0.000000 -1.000000 0.000000
vn 0.000000 -1.000000 0.000000
vn -0.261279 0.965263 0.000000
vn -0.261279 0.965263 0.000000
vn -0.129271 0.983147 0.129269
vn -0.129272 0.983147 -0.129272
vn 0.000000 0.965266 0.261270
vn 0.000000 0.965266 0.261270
vn 0.129269 0.983148 0.129268
vn 0.261272 0.965265 0.000000
vn 0.261272 0.965265 0.000000
vn 0.129270 0.983147 -0.129271
vn 0.000000 0.965264 -0.261278
vn 0.000000 0.965264 -0.261278
vn 0.000000 1.000000 0.000000
vn 0.000000 1.000000 -0.000000
vn 0.000000 1.000000 0.000000
vn 0.000000 1.000000 -0.000000
vn -1.000000 0.000000 0.000000
vn -1.000000 0.000000 0.000000
vn -1.000000 0.000000 0.000000
vn -1.000000 0.000000 0.000000
vn 0.000000 0.000000 1.000000
vn 0.000000 0.000000 1.000000
vn 0.000000 0.000000 1.000000
vn 0.000000 0.000000 1.000000
vn 1.000000 0.000000 0.000000
vn 1.000000 0.000000 0.000000
vn 1.000000 0.000000 0.000000
vn 1.000000 0.000000 0.000000
vn 0.000000 0.000000 -1.000000
vn 0.000000 0.000000 -1.000000
vn 0.000000 0.000000 -1.000000
vn 0.000000 0.000000 -1.000000
s off
g floor
usemtl phong1SG
f 13/1/1 14/2/2 15/3/3 16/4/4
f 1/5/5 3/6/6 4/7/7 2/8/8
s 1
f 1/5/9 2/8/10 6/9/11 5/10/12
f 2/8/13 4/7/14 7/11/15 6/9/11
f 4/7/16 3/6/17 8/12/18 7/11/15
f 3/6/19 1/5/20 5/10/12 8/12/18
f 5/10/12 6/9/11 10/13/21 9/14/22
f 6/9/11 7/11/15 11/15/23 10/13/21
f 7/11/15 8/12/18 12/16/24 11/15/23
f 8/12/18 5/10/12 9/14/22 12/16/24
s off
f 9/17/25 10/18/26 14/19/27 13/20/28
f 10/21/29 11/22/30 15/23/31 14/24/32
f 11/25/33 12/26/34 16/27/35 15/28/36
f 12/29/37 9/30/38 13/31/39 16/32/40
