# This file uses centimeters as units for non-parametric coordinates.

mtllib Plant_wall.mtl
g default
v 1.001802 0.084878 -0.000541
v 1.001802 0.057988 0.003718
v 1.001802 0.033730 0.016078
v 1.001802 0.014479 0.035329
v 1.001802 0.002118 0.059588
v 1.001802 -0.002141 0.086478
v -0.002245 0.084878 -0.000541
v -0.002245 0.057988 0.003718
v -0.002245 0.033730 0.016078
v -0.002245 0.014479 0.035329
v -0.002245 0.002118 0.059588
v -0.002245 -0.002141 0.086478
v 1.001802 1.001896 0.087040
v 1.001802 0.997630 0.060150
v 1.001802 0.985271 0.035892
v 1.001802 0.966020 0.016640
v 1.001802 0.941763 0.004280
v 1.001802 0.914877 0.000021
v -0.002245 1.001896 0.087040
v -0.002245 0.997630 0.060150
v -0.002245 0.985271 0.035892
v -0.002245 0.966020 0.016640
v -0.002245 0.941763 0.004280
v -0.002245 0.914877 0.000021
v -0.004185 0.919032 0.000096
v 0.998401 0.919032 0.000096
v -0.004185 0.083188 0.000096
v 0.998401 0.083188 0.000096
vt 0.425000 0.312500
vt 0.437500 0.312500
vt 0.450000 0.312500
vt 0.462500 0.312500
vt 0.475000 0.312500
vt 0.487500 0.312500
vt 0.425000 0.688440
vt 0.437500 0.688440
vt 0.450000 0.688440
vt 0.462500 0.688440
vt 0.475000 0.688440
vt 0.487500 0.688440
vt 0.425000 0.312500
vt 0.425000 0.688440
vt 0.437500 0.688440
vt 0.437500 0.312500
vt 0.450000 0.688440
vt 0.450000 0.312500
vt 0.462500 0.688440
vt 0.462500 0.312500
vt 0.475000 0.688440
vt 0.475000 0.312500
vt 0.487500 0.688440
vt 0.487500 0.312500
vt 0.001934 0.625931
vt 0.001934 0.001992
vt 0.625872 0.001992
vt 0.625872 0.625931
vn 0.000000 0.156434 0.987688
vn 0.000000 0.156434 0.987688
vn 0.000000 0.309017 0.951057
vn 0.000000 0.309017 0.951057
vn 0.000000 0.587786 0.809016
vn 0.000000 0.587786 0.809016
vn 0.000000 0.809017 0.587785
vn 0.000000 0.809017 0.587785
vn 0.000000 0.951056 0.309018
vn 0.000000 0.951056 0.309018
vn 0.000000 0.987688 0.156435
vn 0.000000 0.987688 0.156435
vn 0.000000 -0.987653 0.156655
vn 0.000000 -0.987653 0.156655
vn 0.000000 -0.951029 0.309101
vn 0.000000 -0.951029 0.309101
vn 0.000000 -0.809028 0.587770
vn 0.000000 -0.809028 0.587770
vn 0.000000 -0.587792 0.809012
vn 0.000000 -0.587792 0.809012
vn 0.000000 -0.309044 0.951048
vn 0.000000 -0.309044 0.951048
vn 0.000000 -0.156458 0.987685
vn 0.000000 -0.156458 0.987685
vn 0.000000 0.000000 1.000000
vn 0.000000 0.000000 1.000000
vn 0.000000 0.000000 1.000000
vn 0.000000 0.000000 1.000000
s 1
g wall
usemtl phong1SG
f 1/1/1 7/7/2 8/8/3 2/2/4
f 2/2/4 8/8/3 9/9/5 3/3/6
f 3/3/6 9/9/5 10/10/7 4/4/8
f 4/4/8 10/10/7 11/11/9 5/5/10
f 5/5/10 11/11/9 12/12/11 6/6/12
s 2
f 13/13/13 19/14/14 20/15/15 14/16/16
f 14/16/16 20/15/15 21/17/17 15/18/18
f 15/18/18 21/17/17 22/19/19 16/20/20
f 16/20/20 22/19/19 23/21/21 17/22/22
f 17/22/22 23/21/21 24/23/23 18/24/24
s off
f 25/25/25 27/26/26 28/27/27 26/28/28
